<?xml version="1.0" encoding="UTF-8"?>
<!-- Generator: visioncortex VTracer -->
<svg id="svg" version="1.1" xmlns="http://www.w3.org/2000/svg" style="display: block;" viewBox="0 0 1280 1280"><path d="M0,0 L157,0 L157,1 L192,1 L192,0 L209,0 L209,1 L211,1 L211,0 L242,0 L242,1 L285,1 L285,0 L344,0 L344,1 L355,1 L355,0 L413,0 L413,1 L482,1 L482,2 L496,2 L496,3 L502,3 L502,4 L512,4 L512,5 L516,5 L516,6 L520,6 L520,7 L523,7 L523,8 L528,8 L528,9 L532,9 L532,10 L536,10 L536,11 L539,11 L539,12 L542,12 L542,13 L544,13 L544,14 L547,14 L547,15 L550,15 L550,16 L553,16 L553,17 L555,17 L555,18 L557,18 L557,19 L560,19 L560,20 L562,20 L562,21 L564,21 L564,22 L566,22 L566,23 L568,23 L568,24 L571,24 L571,25 L573,25 L573,26 L575,26 L575,27 L577,27 L577,28 L578,28 L578,29 L580,29 L580,30 L582,30 L582,31 L583,31 L583,32 L585,32 L585,33 L586,33 L586,34 L588,34 L588,35 L590,35 L590,36 L591,36 L591,37 L593,37 L593,38 L594,38 L594,39 L596,39 L596,40 L598,40 L598,41 L599,41 L599,42 L600,42 L600,43 L602,43 L602,44 L603,44 L603,45 L605,45 L605,46 L606,46 L606,47 L607,47 L607,48 L608,48 L608,49 L609,49 L609,50 L611,50 L611,51 L612,51 L612,52 L613,52 L613,53 L614,53 L614,54 L616,54 L616,55 L617,55 L617,56 L618,56 L618,57 L619,57 L619,58 L620,58 L620,59 L621,59 L621,60 L622,60 L622,61 L623,61 L623,62 L624,62 L624,63 L625,63 L625,64 L626,64 L626,65 L627,65 L627,66 L628,66 L628,67 L629,67 L629,68 L630,68 L630,69 L631,69 L631,70 L632,70 L632,71 L633,71 L633,72 L634,72 L634,73 L635,73 L635,74 L636,74 L636,75 L637,75 L637,76 L638,76 L638,78 L639,78 L639,79 L640,79 L640,80 L641,80 L641,81 L642,81 L642,82 L643,82 L643,84 L645,84 L645,86 L646,86 L646,87 L647,87 L647,89 L648,89 L648,90 L649,90 L649,91 L650,91 L650,92 L651,92 L651,94 L652,94 L652,95 L653,95 L653,97 L654,97 L654,98 L655,98 L655,99 L656,99 L656,101 L657,101 L657,102 L658,102 L658,104 L659,104 L659,105 L660,105 L660,107 L661,107 L661,109 L662,109 L662,110 L663,110 L663,112 L664,112 L664,114 L665,114 L665,115 L666,115 L666,117 L667,117 L667,119 L668,119 L668,122 L669,122 L669,123 L670,123 L670,125 L671,125 L671,127 L672,127 L672,129 L673,129 L673,132 L674,132 L674,134 L675,134 L675,136 L676,136 L676,138 L677,138 L677,141 L678,141 L678,144 L679,144 L679,146 L680,146 L680,149 L681,149 L681,151 L682,151 L682,155 L683,155 L683,159 L684,159 L684,162 L685,162 L685,165 L686,165 L686,169 L687,169 L687,174 L688,174 L688,179 L689,179 L689,185 L690,185 L690,191 L691,191 L691,197 L692,197 L692,209 L693,209 L693,769 L692,769 L692,781 L691,781 L691,788 L690,788 L690,793 L689,793 L689,799 L688,799 L688,804 L687,804 L687,808 L686,808 L686,812 L685,812 L685,816 L684,816 L684,819 L683,819 L683,823 L682,823 L682,826 L681,826 L681,829 L680,829 L680,831 L679,831 L679,833 L678,833 L678,837 L677,837 L677,839 L676,839 L676,842 L675,842 L675,844 L674,844 L674,846 L673,846 L673,848 L672,848 L672,851 L671,851 L671,852 L670,852 L670,854 L669,854 L669,856 L668,856 L668,858 L667,858 L667,861 L666,861 L666,862 L665,862 L665,864 L664,864 L664,865 L663,865 L663,867 L662,867 L662,869 L661,869 L661,871 L660,871 L660,872 L659,872 L659,873 L658,873 L658,875 L657,875 L657,877 L656,877 L656,879 L655,879 L655,880 L654,880 L654,881 L653,881 L653,883 L652,883 L652,884 L651,884 L651,885 L650,885 L650,887 L649,887 L649,888 L648,888 L648,889 L647,889 L647,891 L646,891 L646,892 L645,892 L645,893 L644,893 L644,894 L643,894 L643,896 L642,896 L642,897 L641,897 L641,898 L640,898 L640,899 L639,899 L639,900 L638,900 L638,902 L637,902 L637,903 L636,903 L636,904 L635,904 L635,905 L634,905 L634,906 L633,906 L633,907 L632,907 L632,908 L631,908 L631,909 L630,909 L630,910 L629,910 L629,911 L628,911 L628,912 L627,912 L627,913 L626,913 L626,914 L625,914 L625,915 L624,915 L624,916 L623,916 L623,917 L622,917 L622,918 L621,918 L621,919 L620,919 L620,920 L619,920 L619,921 L618,921 L618,922 L617,922 L617,923 L615,923 L615,924 L614,924 L614,925 L613,925 L613,926 L612,926 L612,927 L611,927 L611,928 L609,928 L609,929 L608,929 L608,930 L607,930 L607,931 L606,931 L606,932 L604,932 L604,933 L603,933 L603,934 L601,934 L601,935 L600,935 L600,936 L599,936 L599,937 L597,937 L597,938 L596,938 L596,939 L594,939 L594,940 L593,940 L593,941 L591,941 L591,942 L589,942 L589,943 L588,943 L588,944 L586,944 L586,945 L584,945 L584,946 L583,946 L583,947 L582,947 L582,948 L580,948 L580,949 L577,949 L577,950 L576,950 L576,951 L574,951 L574,952 L572,952 L572,953 L570,953 L570,954 L568,954 L568,955 L566,955 L566,956 L564,956 L564,957 L562,957 L562,958 L559,958 L559,959 L557,959 L557,960 L554,960 L554,961 L552,961 L552,962 L549,962 L549,963 L547,963 L547,964 L543,964 L543,965 L541,965 L541,966 L538,966 L538,967 L535,967 L535,968 L531,968 L531,969 L527,969 L527,970 L523,970 L523,971 L520,971 L520,972 L516,972 L516,973 L511,973 L511,974 L501,974 L501,975 L492,975 L492,976 L477,976 L477,977 L-72,977 L-72,976 L-85,976 L-85,975 L-96,975 L-96,974 L-106,974 L-106,973 L-111,973 L-111,972 L-115,972 L-115,971 L-118,971 L-118,970 L-121,970 L-121,969 L-125,969 L-125,968 L-130,968 L-130,967 L-133,967 L-133,966 L-136,966 L-136,965 L-139,965 L-139,964 L-142,964 L-142,963 L-145,963 L-145,962 L-147,962 L-147,961 L-149,961 L-149,960 L-152,960 L-152,959 L-154,959 L-154,958 L-157,958 L-157,957 L-159,957 L-159,956 L-160,956 L-160,955 L-162,955 L-162,954 L-165,954 L-165,953 L-167,953 L-167,952 L-169,952 L-169,951 L-171,951 L-171,950 L-172,950 L-172,949 L-174,949 L-174,948 L-176,948 L-176,947 L-178,947 L-178,946 L-179,946 L-179,945 L-180,945 L-180,944 L-182,944 L-182,943 L-184,943 L-184,942 L-186,942 L-186,941 L-187,941 L-187,940 L-188,940 L-188,939 L-190,939 L-190,938 L-192,938 L-192,937 L-193,937 L-193,936 L-194,936 L-194,935 L-195,935 L-195,934 L-197,934 L-197,933 L-199,933 L-199,932 L-200,932 L-200,931 L-201,931 L-201,930 L-202,930 L-202,929 L-204,929 L-204,928 L-205,928 L-205,927 L-206,927 L-206,926 L-207,926 L-207,925 L-209,925 L-209,924 L-210,924 L-210,923 L-211,923 L-211,922 L-212,922 L-212,921 L-213,921 L-213,920 L-214,920 L-214,919 L-216,919 L-216,918 L-217,918 L-217,917 L-218,917 L-218,916 L-219,916 L-219,915 L-220,915 L-220,914 L-221,914 L-221,913 L-222,913 L-222,912 L-223,912 L-223,911 L-224,911 L-224,909 L-226,909 L-226,908 L-227,908 L-227,906 L-228,906 L-228,905 L-229,905 L-229,904 L-230,904 L-230,903 L-231,903 L-231,902 L-232,902 L-232,901 L-233,901 L-233,900 L-234,900 L-234,899 L-235,899 L-235,898 L-236,898 L-236,896 L-237,896 L-237,895 L-238,895 L-238,894 L-239,894 L-239,893 L-240,893 L-240,891 L-241,891 L-241,890 L-242,890 L-242,888 L-243,888 L-243,887 L-244,887 L-244,886 L-245,886 L-245,885 L-246,885 L-246,883 L-247,883 L-247,882 L-248,882 L-248,881 L-249,881 L-249,879 L-250,879 L-250,878 L-251,878 L-251,876 L-252,876 L-252,874 L-253,874 L-253,873 L-254,873 L-254,871 L-255,871 L-255,870 L-256,870 L-256,868 L-257,868 L-257,866 L-258,866 L-258,865 L-259,865 L-259,863 L-260,863 L-260,862 L-261,862 L-261,860 L-262,860 L-262,857 L-263,857 L-263,855 L-264,855 L-264,853 L-265,853 L-265,852 L-266,852 L-266,849 L-267,849 L-267,847 L-268,847 L-268,845 L-269,845 L-269,843 L-270,843 L-270,841 L-271,841 L-271,838 L-272,838 L-272,834 L-273,834 L-273,832 L-274,832 L-274,830 L-275,830 L-275,827 L-276,827 L-276,824 L-277,824 L-277,821 L-278,821 L-278,817 L-279,817 L-279,814 L-280,814 L-280,810 L-281,810 L-281,806 L-282,806 L-282,800 L-283,800 L-283,796 L-284,796 L-284,790 L-285,790 L-285,785 L-286,785 L-286,771 L-287,771 L-287,207 L-286,207 L-286,194 L-285,194 L-285,189 L-284,189 L-284,181 L-283,181 L-283,177 L-282,177 L-282,171 L-281,171 L-281,168 L-280,168 L-280,164 L-279,164 L-279,161 L-278,161 L-278,158 L-277,158 L-277,154 L-276,154 L-276,151 L-275,151 L-275,149 L-274,149 L-274,145 L-273,145 L-273,143 L-272,143 L-272,140 L-271,140 L-271,138 L-270,138 L-270,135 L-269,135 L-269,134 L-268,134 L-268,132 L-267,132 L-267,129 L-266,129 L-266,127 L-265,127 L-265,125 L-264,125 L-264,123 L-263,123 L-263,121 L-262,121 L-262,119 L-261,119 L-261,117 L-260,117 L-260,115 L-259,115 L-259,113 L-258,113 L-258,112 L-257,112 L-257,110 L-256,110 L-256,108 L-255,108 L-255,106 L-254,106 L-254,105 L-253,105 L-253,104 L-252,104 L-252,102 L-251,102 L-251,100 L-250,100 L-250,99 L-249,99 L-249,97 L-248,97 L-248,96 L-247,96 L-247,94 L-246,94 L-246,93 L-245,93 L-245,92 L-244,92 L-244,91 L-243,91 L-243,89 L-242,89 L-242,88 L-241,88 L-241,86 L-240,86 L-240,85 L-239,85 L-239,84 L-238,84 L-238,83 L-237,83 L-237,81 L-236,81 L-236,80 L-235,80 L-235,79 L-234,79 L-234,78 L-233,78 L-233,77 L-232,77 L-232,76 L-231,76 L-231,75 L-230,75 L-230,74 L-229,74 L-229,73 L-228,73 L-228,72 L-227,72 L-227,70 L-226,70 L-226,69 L-225,69 L-225,68 L-224,68 L-224,67 L-222,67 L-222,65 L-221,65 L-221,64 L-219,64 L-219,63 L-218,63 L-218,62 L-217,62 L-217,61 L-216,61 L-216,60 L-215,60 L-215,59 L-214,59 L-214,58 L-213,58 L-213,57 L-212,57 L-212,56 L-211,56 L-211,55 L-210,55 L-210,54 L-209,54 L-209,53 L-207,53 L-207,52 L-206,52 L-206,51 L-205,51 L-205,50 L-204,50 L-204,49 L-202,49 L-202,47 L-201,47 L-201,46 L-199,46 L-199,45 L-197,45 L-197,44 L-196,44 L-196,43 L-195,43 L-195,42 L-193,42 L-193,41 L-192,41 L-192,40 L-191,40 L-191,39 L-188,39 L-188,38 L-187,38 L-187,37 L-186,37 L-186,36 L-184,36 L-184,35 L-182,35 L-182,34 L-181,34 L-181,33 L-179,33 L-179,32 L-178,32 L-178,31 L-176,31 L-176,30 L-174,30 L-174,29 L-172,29 L-172,28 L-171,28 L-171,27 L-169,27 L-169,26 L-167,26 L-167,25 L-165,25 L-165,24 L-162,24 L-162,23 L-161,23 L-161,22 L-159,22 L-159,21 L-157,21 L-157,20 L-155,20 L-155,19 L-152,19 L-152,18 L-150,18 L-150,17 L-147,17 L-147,16 L-145,16 L-145,15 L-142,15 L-142,14 L-138,14 L-138,13 L-136,13 L-136,12 L-134,12 L-134,11 L-131,11 L-131,10 L-127,10 L-127,9 L-122,9 L-122,8 L-118,8 L-118,7 L-115,7 L-115,6 L-111,6 L-111,5 L-106,5 L-106,4 L-96,4 L-96,3 L-88,3 L-88,2 L-75,2 L-75,1 L0,1 Z " transform="translate(437,151)" style="fill: #D57355;"/><path d="M0,0 L12,0 L12,1 L16,1 L16,2 L18,2 L18,3 L20,3 L20,4 L21,4 L21,5 L22,5 L22,6 L23,6 L23,7 L24,7 L24,8 L25,8 L25,9 L26,9 L26,10 L27,10 L27,12 L28,12 L28,13 L29,13 L29,15 L30,15 L30,18 L31,18 L31,20 L32,20 L32,23 L33,23 L33,25 L34,25 L34,30 L35,30 L35,31 L36,31 L36,34 L37,34 L37,37 L38,37 L38,39 L39,39 L39,41 L40,41 L40,45 L41,45 L41,46 L42,46 L42,47 L43,47 L43,51 L44,51 L44,53 L45,53 L45,54 L46,54 L46,55 L47,55 L47,57 L48,57 L48,59 L49,59 L49,60 L50,60 L50,62 L51,62 L51,64 L52,64 L52,65 L53,65 L53,66 L54,66 L54,68 L55,68 L55,69 L56,69 L56,71 L57,71 L57,72 L58,72 L58,73 L59,73 L59,75 L60,75 L60,76 L61,76 L61,77 L62,77 L62,78 L63,78 L63,79 L64,79 L64,80 L65,80 L65,82 L66,82 L66,83 L67,83 L67,84 L68,84 L68,85 L69,85 L69,86 L70,86 L70,87 L71,87 L71,88 L72,88 L72,89 L73,89 L73,90 L74,90 L74,91 L75,91 L75,92 L76,92 L76,93 L78,93 L78,94 L79,94 L79,95 L80,95 L80,96 L81,96 L81,97 L82,97 L82,98 L84,98 L84,99 L85,99 L85,100 L87,100 L87,101 L88,101 L88,102 L90,102 L90,103 L92,103 L92,104 L94,104 L94,105 L95,105 L95,106 L99,106 L99,107 L101,107 L101,108 L102,108 L102,109 L105,109 L105,110 L108,110 L108,111 L110,111 L110,112 L115,112 L115,113 L118,113 L118,114 L126,114 L126,115 L152,115 L152,114 L153,114 L153,113 L159,113 L159,112 L164,112 L164,111 L166,111 L166,110 L169,110 L169,109 L172,109 L172,108 L176,108 L176,107 L178,107 L178,106 L179,106 L179,105 L181,105 L181,104 L183,104 L183,103 L184,103 L184,102 L186,102 L186,101 L188,101 L188,100 L189,100 L189,99 L191,99 L191,98 L192,98 L192,97 L193,97 L193,96 L195,96 L195,95 L196,95 L196,94 L197,94 L197,93 L198,93 L198,92 L199,92 L199,91 L200,91 L200,90 L201,90 L201,89 L203,89 L203,88 L204,88 L204,87 L205,87 L205,86 L206,86 L206,85 L207,85 L207,84 L208,84 L208,83 L209,83 L209,82 L210,82 L210,81 L211,81 L211,79 L212,79 L212,78 L213,78 L213,77 L214,77 L214,76 L215,76 L215,75 L216,75 L216,74 L217,74 L217,72 L218,72 L218,71 L219,71 L219,70 L220,70 L220,68 L221,68 L221,67 L222,67 L222,65 L223,65 L223,64 L224,64 L224,62 L225,62 L225,61 L226,61 L226,59 L227,59 L227,57 L228,57 L228,56 L229,56 L229,55 L230,55 L230,51 L231,51 L231,50 L232,50 L232,47 L233,47 L233,46 L234,46 L234,43 L235,43 L235,41 L236,41 L236,39 L237,39 L237,36 L238,36 L238,34 L239,34 L239,31 L240,31 L240,30 L241,30 L241,27 L242,27 L242,24 L243,24 L243,22 L244,22 L244,18 L245,18 L245,15 L246,15 L246,13 L247,13 L247,11 L248,11 L248,10 L249,10 L249,9 L250,9 L250,8 L251,8 L251,7 L252,7 L252,6 L253,6 L253,5 L254,5 L254,4 L255,4 L255,3 L256,3 L256,2 L258,2 L258,1 L262,1 L262,0 L273,0 L273,1 L276,1 L276,2 L278,2 L278,3 L281,3 L281,4 L282,4 L282,5 L283,5 L283,6 L285,6 L285,7 L286,7 L286,8 L287,8 L287,9 L288,9 L288,11 L289,11 L289,13 L290,13 L290,14 L291,14 L291,15 L292,15 L292,32 L291,32 L291,35 L290,35 L290,37 L289,37 L289,41 L288,41 L288,43 L287,43 L287,46 L286,46 L286,49 L285,49 L285,51 L284,51 L284,54 L283,54 L283,56 L282,56 L282,58 L281,58 L281,61 L280,61 L280,63 L279,63 L279,65 L278,65 L278,67 L277,67 L277,70 L276,70 L276,72 L275,72 L275,73 L274,73 L274,75 L273,75 L273,77 L272,77 L272,79 L271,79 L271,81 L270,81 L270,83 L269,83 L269,84 L268,84 L268,86 L267,86 L267,87 L266,87 L266,89 L265,89 L265,91 L264,91 L264,92 L263,92 L263,94 L262,94 L262,95 L261,95 L261,96 L260,96 L260,98 L259,98 L259,99 L258,99 L258,101 L257,101 L257,102 L256,102 L256,103 L255,103 L255,105 L254,105 L254,106 L253,106 L253,107 L252,107 L252,108 L251,108 L251,109 L250,109 L250,111 L249,111 L249,112 L248,112 L248,113 L247,113 L247,114 L246,114 L246,115 L245,115 L245,116 L244,116 L244,117 L243,117 L243,118 L242,118 L242,120 L241,120 L241,121 L240,121 L240,122 L239,122 L239,123 L237,123 L237,124 L236,124 L236,125 L235,125 L235,126 L234,126 L234,127 L233,127 L233,128 L232,128 L232,129 L231,129 L231,130 L230,130 L230,131 L229,131 L229,132 L227,132 L227,133 L226,133 L226,134 L225,134 L225,135 L223,135 L223,136 L222,136 L222,137 L221,137 L221,138 L219,138 L219,139 L218,139 L218,140 L217,140 L217,141 L215,141 L215,142 L213,142 L213,143 L212,143 L212,144 L210,144 L210,145 L208,145 L208,146 L206,146 L206,147 L205,147 L205,148 L203,148 L203,149 L201,149 L201,150 L198,150 L198,152 L195,152 L195,153 L192,153 L192,154 L191,154 L191,155 L187,155 L187,156 L184,156 L184,157 L182,157 L182,158 L179,158 L179,159 L178,159 L178,160 L176,160 L176,161 L175,161 L175,162 L174,162 L174,163 L172,163 L172,164 L171,164 L171,165 L170,165 L170,166 L169,166 L169,168 L168,168 L168,170 L167,170 L167,172 L166,172 L166,174 L165,174 L165,182 L164,182 L164,195 L163,195 L163,199 L162,199 L162,201 L161,201 L161,202 L160,202 L160,204 L159,204 L159,205 L158,205 L158,206 L155,206 L155,207 L152,207 L152,208 L120,208 L120,207 L118,207 L118,206 L117,206 L117,205 L116,205 L116,204 L115,204 L115,203 L114,203 L114,200 L113,200 L113,198 L112,198 L112,194 L111,194 L111,181 L110,181 L110,178 L109,178 L109,174 L108,174 L108,170 L107,170 L107,169 L106,169 L106,167 L105,167 L105,166 L104,166 L104,165 L103,165 L103,164 L102,164 L102,163 L101,163 L101,162 L100,162 L100,161 L98,161 L98,159 L96,159 L96,158 L92,158 L92,157 L89,157 L89,156 L87,156 L87,155 L85,155 L85,154 L83,154 L83,153 L79,153 L79,152 L77,152 L77,151 L75,151 L75,150 L74,150 L74,149 L72,149 L72,148 L70,148 L70,147 L68,147 L68,146 L66,146 L66,145 L64,145 L64,144 L63,144 L63,143 L61,143 L61,142 L60,142 L60,141 L58,141 L58,140 L57,140 L57,139 L55,139 L55,138 L54,138 L54,137 L52,137 L52,136 L51,136 L51,135 L50,135 L50,134 L49,134 L49,133 L47,133 L47,132 L46,132 L46,131 L45,131 L45,130 L44,130 L44,129 L43,129 L43,128 L42,128 L42,127 L41,127 L41,126 L39,126 L39,125 L38,125 L38,123 L37,123 L37,122 L35,122 L35,121 L34,121 L34,120 L33,120 L33,119 L32,119 L32,117 L31,117 L31,116 L30,116 L30,115 L29,115 L29,114 L28,114 L28,113 L27,113 L27,112 L26,112 L26,111 L25,111 L25,110 L24,110 L24,109 L23,109 L23,107 L22,107 L22,106 L21,106 L21,105 L20,105 L20,103 L19,103 L19,102 L18,102 L18,101 L17,101 L17,100 L16,100 L16,98 L15,98 L15,97 L14,97 L14,95 L13,95 L13,94 L12,94 L12,92 L11,92 L11,91 L10,91 L10,89 L9,89 L9,87 L8,87 L8,85 L7,85 L7,84 L6,84 L6,82 L5,82 L5,81 L4,81 L4,79 L3,79 L3,77 L2,77 L2,75 L1,75 L1,73 L0,73 L0,71 L-1,71 L-1,69 L-2,69 L-2,68 L-3,68 L-3,66 L-4,66 L-4,63 L-5,63 L-5,61 L-6,61 L-6,59 L-7,59 L-7,56 L-8,56 L-8,54 L-9,54 L-9,51 L-10,51 L-10,48 L-11,48 L-11,46 L-12,46 L-12,45 L-13,45 L-13,42 L-14,42 L-14,37 L-15,37 L-15,34 L-16,34 L-16,32 L-17,32 L-17,18 L-16,18 L-16,14 L-15,14 L-15,12 L-14,12 L-14,10 L-13,10 L-13,9 L-12,9 L-12,8 L-11,8 L-11,7 L-10,7 L-10,6 L-9,6 L-9,5 L-7,5 L-7,4 L-6,4 L-6,3 L-4,3 L-4,2 L-2,2 L-2,1 L0,1 Z " transform="translate(495,521)" style="fill: #FDFBFA;"/><path d="M0,0 L1,0 L1,1 L2,1 L2,2 L3,2 L3,3 L4,3 L4,4 L5,4 L5,6 L6,6 L6,7 L7,7 L7,11 L8,11 L8,15 L9,15 L9,18 L10,18 L10,31 L11,31 L11,35 L12,35 L12,37 L13,37 L13,40 L14,40 L14,41 L15,41 L15,42 L16,42 L16,43 L17,43 L17,44 L19,44 L19,45 L51,45 L51,44 L54,44 L54,43 L57,43 L57,42 L58,42 L58,44 L57,44 L57,45 L56,45 L56,47 L55,47 L55,49 L59,49 L59,51 L58,51 L58,52 L55,52 L55,53 L57,53 L57,59 L56,59 L56,60 L55,60 L55,61 L54,61 L54,93 L53,93 L53,104 L52,104 L52,112 L51,112 L51,115 L50,115 L50,119 L48,119 L48,115 L49,115 L49,110 L50,110 L50,104 L51,104 L51,98 L52,98 L52,57 L49,57 L49,58 L21,58 L21,98 L20,98 L20,104 L19,104 L19,106 L18,106 L18,112 L17,112 L17,115 L16,115 L16,118 L15,118 L15,121 L14,121 L14,125 L13,125 L13,126 L12,126 L12,130 L11,130 L11,132 L10,132 L10,134 L9,134 L9,136 L8,136 L8,138 L7,138 L7,140 L6,140 L6,142 L5,142 L5,143 L4,143 L4,145 L3,145 L3,147 L2,147 L2,148 L1,148 L1,150 L0,150 L0,151 L-1,151 L-1,153 L-2,153 L-2,154 L-3,154 L-3,155 L-4,155 L-4,156 L-5,156 L-5,158 L-6,158 L-6,159 L-7,159 L-7,160 L-8,160 L-8,161 L-9,161 L-9,162 L-10,162 L-10,163 L-11,163 L-11,164 L-12,164 L-12,165 L-13,165 L-13,166 L-14,166 L-14,167 L-15,167 L-15,168 L-16,168 L-16,169 L-18,169 L-18,170 L-19,170 L-19,171 L-20,171 L-20,172 L-21,172 L-21,173 L-23,173 L-23,174 L-24,174 L-24,175 L-26,175 L-26,176 L-27,176 L-27,177 L-28,177 L-28,178 L-30,178 L-30,179 L-31,179 L-31,180 L-33,180 L-33,181 L-35,181 L-35,182 L-36,182 L-36,183 L-38,183 L-38,184 L-40,184 L-40,185 L-42,185 L-42,186 L-44,186 L-44,187 L-46,187 L-46,188 L-49,188 L-49,190 L-53,190 L-53,191 L-56,191 L-56,192 L-58,192 L-58,193 L-60,193 L-60,194 L-63,194 L-63,195 L-66,195 L-66,196 L-70,196 L-70,197 L-74,197 L-74,198 L-76,198 L-76,199 L-84,199 L-84,200 L-91,200 L-91,201 L-99,201 L-99,202 L-139,202 L-139,201 L-146,201 L-146,200 L-151,200 L-151,199 L-156,199 L-156,198 L-161,198 L-161,197 L-165,197 L-165,196 L-167,196 L-167,195 L-171,195 L-171,194 L-173,194 L-173,193 L-176,193 L-176,192 L-177,192 L-177,191 L-180,191 L-180,190 L-183,190 L-183,189 L-184,189 L-184,188 L-186,188 L-186,187 L-188,187 L-188,186 L-189,186 L-189,185 L-191,185 L-191,184 L-193,184 L-193,183 L-194,183 L-194,182 L-195,182 L-195,181 L-196,181 L-196,180 L-197,180 L-197,179 L-198,179 L-198,178 L-199,178 L-199,177 L-200,177 L-200,176 L-201,176 L-201,175 L-202,175 L-202,174 L-203,174 L-203,173 L-204,173 L-204,171 L-205,171 L-205,170 L-206,170 L-206,169 L-207,169 L-207,166 L-208,166 L-208,164 L-209,164 L-209,162 L-210,162 L-210,160 L-211,160 L-211,136 L-210,136 L-210,133 L-209,133 L-209,131 L-208,131 L-208,129 L-207,129 L-207,128 L-206,128 L-206,126 L-205,126 L-205,125 L-204,125 L-204,124 L-203,124 L-203,123 L-202,123 L-202,122 L-201,122 L-201,121 L-200,121 L-200,120 L-199,120 L-199,119 L-198,119 L-198,117 L-196,117 L-196,116 L-195,116 L-195,115 L-194,115 L-194,114 L-193,114 L-193,113 L-191,113 L-191,112 L-190,112 L-190,111 L-188,111 L-188,110 L-187,110 L-187,109 L-184,109 L-184,108 L-183,108 L-183,107 L-181,107 L-181,106 L-178,106 L-178,105 L-176,105 L-176,104 L-173,104 L-173,103 L-170,103 L-170,102 L-168,102 L-168,101 L-164,101 L-164,100 L-161,100 L-161,99 L-156,99 L-156,98 L-148,98 L-148,97 L-143,97 L-143,96 L8,96 L8,95 L9,95 L9,64 L-140,64 L-140,65 L-148,65 L-148,64 L-146,64 L-146,63 L-135,63 L-135,62 L3,62 L3,60 L8,60 L8,55 L7,55 L7,53 L10,53 L10,51 L8,51 L8,47 L9,47 L9,48 L11,48 L11,49 L12,49 L12,48 L13,48 L13,46 L12,46 L12,45 L11,45 L11,43 L9,43 L9,39 L10,39 L10,35 L9,35 L9,22 L8,22 L8,20 L7,20 L7,15 L6,15 L6,14 L5,14 L5,8 L4,8 L4,6 L2,6 L2,5 L0,5 L0,3 L1,3 L1,2 L0,2 Z " transform="translate(596,684)" style="fill: #D47355;"/><path d="M0,0 L3,0 L3,41 L2,41 L2,47 L1,47 L1,53 L0,53 L0,58 L-1,58 L-1,62 L-2,62 L-2,65 L-3,65 L-3,69 L-4,69 L-4,72 L-5,72 L-5,75 L-6,75 L-6,80 L-7,80 L-7,81 L-8,81 L-8,83 L-9,83 L-9,87 L-10,87 L-10,88 L-11,88 L-11,91 L-12,91 L-12,93 L-13,93 L-13,95 L-14,95 L-14,97 L-15,97 L-15,99 L-16,99 L-16,100 L-17,100 L-17,102 L-18,102 L-18,104 L-19,104 L-19,105 L-20,105 L-20,107 L-21,107 L-21,109 L-22,109 L-22,110 L-23,110 L-23,111 L-24,111 L-24,113 L-25,113 L-25,114 L-26,114 L-26,115 L-27,115 L-27,116 L-28,116 L-28,118 L-29,118 L-29,119 L-30,119 L-30,120 L-31,120 L-31,122 L-33,122 L-33,123 L-34,123 L-34,125 L-35,125 L-35,126 L-36,126 L-36,127 L-37,127 L-37,128 L-38,128 L-38,129 L-39,129 L-39,130 L-40,130 L-40,131 L-41,131 L-41,132 L-42,132 L-42,133 L-44,133 L-44,134 L-45,134 L-45,135 L-46,135 L-46,136 L-47,136 L-47,137 L-48,137 L-48,138 L-49,138 L-49,139 L-50,139 L-50,140 L-52,140 L-52,141 L-53,141 L-53,142 L-54,142 L-54,143 L-56,143 L-56,144 L-57,144 L-57,145 L-58,145 L-58,146 L-60,146 L-60,147 L-61,147 L-61,148 L-63,148 L-63,149 L-64,149 L-64,150 L-67,150 L-67,151 L-68,151 L-68,152 L-69,152 L-69,153 L-71,153 L-71,154 L-73,154 L-73,155 L-75,155 L-75,156 L-77,156 L-77,157 L-79,157 L-79,158 L-80,158 L-80,159 L-84,159 L-84,160 L-85,160 L-85,161 L-88,161 L-88,162 L-91,162 L-91,163 L-93,163 L-93,164 L-96,164 L-96,165 L-97,165 L-97,166 L-101,166 L-101,167 L-104,167 L-104,168 L-107,168 L-107,169 L-111,169 L-111,170 L-114,170 L-114,171 L-118,171 L-118,172 L-125,172 L-125,173 L-131,173 L-131,174 L-133,174 L-133,175 L-143,175 L-143,176 L-148,176 L-148,177 L-184,177 L-184,176 L-193,176 L-193,175 L-199,175 L-199,174 L-205,174 L-205,173 L-210,173 L-210,172 L-215,172 L-215,171 L-217,171 L-217,170 L-222,170 L-222,169 L-225,169 L-225,168 L-227,168 L-227,167 L-230,167 L-230,166 L-232,166 L-232,165 L-235,165 L-235,164 L-239,164 L-239,163 L-241,163 L-241,162 L-243,162 L-243,161 L-245,161 L-245,160 L-247,160 L-247,159 L-249,159 L-249,158 L-251,158 L-251,157 L-252,157 L-252,156 L-254,156 L-254,155 L-255,155 L-255,154 L-257,154 L-257,153 L-258,153 L-258,152 L-260,152 L-260,151 L-261,151 L-261,150 L-262,150 L-262,149 L-264,149 L-264,148 L-265,148 L-265,147 L-266,147 L-266,146 L-267,146 L-267,145 L-268,145 L-268,144 L-269,144 L-269,143 L-270,143 L-270,142 L-271,142 L-271,141 L-272,141 L-272,140 L-273,140 L-273,139 L-274,139 L-274,138 L-275,138 L-275,137 L-276,137 L-276,136 L-277,136 L-277,134 L-278,134 L-278,133 L-279,133 L-279,131 L-280,131 L-280,130 L-281,130 L-281,128 L-282,128 L-282,127 L-283,127 L-283,125 L-284,125 L-284,123 L-285,123 L-285,121 L-286,121 L-286,118 L-287,118 L-287,116 L-288,116 L-288,114 L-289,114 L-289,110 L-290,110 L-290,107 L-291,107 L-291,101 L-292,101 L-292,83 L-291,83 L-291,77 L-290,77 L-290,72 L-289,72 L-289,69 L-288,69 L-288,66 L-287,66 L-287,65 L-286,65 L-286,61 L-285,61 L-285,59 L-284,59 L-284,58 L-283,58 L-283,56 L-282,56 L-282,54 L-281,54 L-281,52 L-280,52 L-280,51 L-279,51 L-279,50 L-278,50 L-278,49 L-277,49 L-277,47 L-276,47 L-276,46 L-275,46 L-275,45 L-274,45 L-274,44 L-273,44 L-273,43 L-272,43 L-272,42 L-271,42 L-271,41 L-270,41 L-270,40 L-269,40 L-269,39 L-268,39 L-268,38 L-267,38 L-267,37 L-266,37 L-266,36 L-265,36 L-265,35 L-264,35 L-264,34 L-262,34 L-262,33 L-261,33 L-261,32 L-260,32 L-260,31 L-258,31 L-258,30 L-257,30 L-257,29 L-256,29 L-256,28 L-254,28 L-254,27 L-252,27 L-252,26 L-251,26 L-251,25 L-249,25 L-249,24 L-247,24 L-247,23 L-245,23 L-245,22 L-242,22 L-242,21 L-241,21 L-241,20 L-239,20 L-239,19 L-236,19 L-236,18 L-234,18 L-234,17 L-231,17 L-231,16 L-227,16 L-227,15 L-225,15 L-225,14 L-221,14 L-221,13 L-218,13 L-218,12 L-214,12 L-214,11 L-209,11 L-209,10 L-205,10 L-205,9 L-198,9 L-198,8 L-189,8 L-189,7 L-40,7 L-40,38 L-41,38 L-41,39 L-192,39 L-192,40 L-197,40 L-197,41 L-205,41 L-205,42 L-210,42 L-210,43 L-213,43 L-213,44 L-217,44 L-217,45 L-219,45 L-219,46 L-222,46 L-222,47 L-225,47 L-225,48 L-227,48 L-227,49 L-230,49 L-230,50 L-232,50 L-232,51 L-233,51 L-233,52 L-236,52 L-236,53 L-237,53 L-237,54 L-239,54 L-239,55 L-240,55 L-240,56 L-242,56 L-242,57 L-243,57 L-243,58 L-244,58 L-244,59 L-245,59 L-245,60 L-247,60 L-247,62 L-248,62 L-248,63 L-249,63 L-249,64 L-250,64 L-250,65 L-251,65 L-251,66 L-252,66 L-252,67 L-253,67 L-253,68 L-254,68 L-254,69 L-255,69 L-255,71 L-256,71 L-256,72 L-257,72 L-257,74 L-258,74 L-258,76 L-259,76 L-259,79 L-260,79 L-260,103 L-259,103 L-259,105 L-258,105 L-258,107 L-257,107 L-257,109 L-256,109 L-256,112 L-255,112 L-255,113 L-254,113 L-254,114 L-253,114 L-253,116 L-252,116 L-252,117 L-251,117 L-251,118 L-250,118 L-250,119 L-249,119 L-249,120 L-248,120 L-248,121 L-247,121 L-247,122 L-246,122 L-246,123 L-245,123 L-245,124 L-244,124 L-244,125 L-243,125 L-243,126 L-242,126 L-242,127 L-240,127 L-240,128 L-238,128 L-238,129 L-237,129 L-237,130 L-235,130 L-235,131 L-233,131 L-233,132 L-232,132 L-232,133 L-229,133 L-229,134 L-226,134 L-226,135 L-225,135 L-225,136 L-222,136 L-222,137 L-220,137 L-220,138 L-216,138 L-216,139 L-214,139 L-214,140 L-210,140 L-210,141 L-205,141 L-205,142 L-200,142 L-200,143 L-195,143 L-195,144 L-188,144 L-188,145 L-148,145 L-148,144 L-140,144 L-140,143 L-133,143 L-133,142 L-125,142 L-125,141 L-123,141 L-123,140 L-119,140 L-119,139 L-115,139 L-115,138 L-112,138 L-112,137 L-109,137 L-109,136 L-107,136 L-107,135 L-105,135 L-105,134 L-102,134 L-102,133 L-98,133 L-98,131 L-95,131 L-95,130 L-93,130 L-93,129 L-91,129 L-91,128 L-89,128 L-89,127 L-87,127 L-87,126 L-85,126 L-85,125 L-84,125 L-84,124 L-82,124 L-82,123 L-80,123 L-80,122 L-79,122 L-79,121 L-77,121 L-77,120 L-76,120 L-76,119 L-75,119 L-75,118 L-73,118 L-73,117 L-72,117 L-72,116 L-70,116 L-70,115 L-69,115 L-69,114 L-68,114 L-68,113 L-67,113 L-67,112 L-65,112 L-65,111 L-64,111 L-64,110 L-63,110 L-63,109 L-62,109 L-62,108 L-61,108 L-61,107 L-60,107 L-60,106 L-59,106 L-59,105 L-58,105 L-58,104 L-57,104 L-57,103 L-56,103 L-56,102 L-55,102 L-55,101 L-54,101 L-54,99 L-53,99 L-53,98 L-52,98 L-52,97 L-51,97 L-51,96 L-50,96 L-50,94 L-49,94 L-49,93 L-48,93 L-48,91 L-47,91 L-47,90 L-46,90 L-46,88 L-45,88 L-45,86 L-44,86 L-44,85 L-43,85 L-43,83 L-42,83 L-42,81 L-41,81 L-41,79 L-40,79 L-40,77 L-39,77 L-39,75 L-38,75 L-38,73 L-37,73 L-37,69 L-36,69 L-36,68 L-35,68 L-35,64 L-34,64 L-34,61 L-33,61 L-33,58 L-32,58 L-32,55 L-31,55 L-31,49 L-30,49 L-30,47 L-29,47 L-29,41 L-28,41 L-28,1 L0,1 Z " transform="translate(645,741)" style="fill: #FCFAF8;"/><path d="M0,0 L159,0 L159,1 L172,1 L172,2 L179,2 L179,3 L182,3 L182,4 L187,4 L187,5 L193,5 L193,6 L195,6 L195,7 L199,7 L199,8 L201,8 L201,9 L204,9 L204,10 L208,10 L208,11 L211,11 L211,12 L212,12 L212,13 L215,13 L215,14 L217,14 L217,15 L219,15 L219,16 L221,16 L221,17 L223,17 L223,18 L225,18 L225,19 L227,19 L227,20 L228,20 L228,21 L230,21 L230,22 L231,22 L231,23 L233,23 L233,24 L235,24 L235,25 L236,25 L236,26 L237,26 L237,27 L238,27 L238,28 L240,28 L240,29 L241,29 L241,30 L242,30 L242,31 L243,31 L243,32 L244,32 L244,33 L245,33 L245,34 L246,34 L246,35 L247,35 L247,36 L248,36 L248,37 L249,37 L249,38 L250,38 L250,39 L251,39 L251,40 L252,40 L252,42 L253,42 L253,43 L254,43 L254,44 L255,44 L255,46 L256,46 L256,48 L257,48 L257,49 L258,49 L258,51 L259,51 L259,53 L260,53 L260,55 L261,55 L261,57 L262,57 L262,61 L263,61 L263,62 L264,62 L264,66 L265,66 L265,69 L266,69 L266,76 L267,76 L267,94 L266,94 L266,97 L265,97 L265,103 L264,103 L264,106 L263,106 L263,110 L262,110 L262,112 L261,112 L261,114 L260,114 L260,116 L259,116 L259,117 L258,117 L258,119 L257,119 L257,121 L256,121 L256,123 L255,123 L255,124 L254,124 L254,126 L252,126 L252,128 L251,128 L251,129 L250,129 L250,130 L249,130 L249,131 L248,131 L248,133 L247,133 L247,134 L246,134 L246,135 L245,135 L245,136 L244,136 L244,137 L243,137 L243,138 L242,138 L242,139 L241,139 L241,140 L240,140 L240,141 L238,141 L238,142 L237,142 L237,143 L235,143 L235,144 L234,144 L234,145 L233,145 L233,146 L231,146 L231,147 L230,147 L230,148 L228,148 L228,149 L227,149 L227,150 L225,150 L225,151 L223,151 L223,152 L221,152 L221,153 L219,153 L219,154 L217,154 L217,155 L214,155 L214,156 L212,156 L212,157 L210,157 L210,158 L207,158 L207,159 L204,159 L204,160 L201,160 L201,161 L199,161 L199,162 L197,162 L197,163 L192,163 L192,164 L189,164 L189,165 L186,165 L186,142 L187,142 L187,138 L188,138 L188,135 L189,135 L189,133 L190,133 L190,132 L191,132 L191,131 L194,131 L194,130 L196,130 L196,129 L199,129 L199,128 L200,128 L200,127 L203,127 L203,126 L205,126 L205,125 L207,125 L207,124 L209,124 L209,123 L211,123 L211,122 L213,122 L213,121 L214,121 L214,120 L216,120 L216,119 L217,119 L217,118 L218,118 L218,117 L220,117 L220,116 L221,116 L221,115 L222,115 L222,114 L223,114 L223,113 L224,113 L224,112 L225,112 L225,111 L226,111 L226,110 L227,110 L227,109 L228,109 L228,107 L229,107 L229,106 L230,106 L230,104 L231,104 L231,102 L232,102 L232,100 L233,100 L233,97 L234,97 L234,94 L235,94 L235,74 L234,74 L234,71 L233,71 L233,68 L232,68 L232,67 L231,67 L231,64 L230,64 L230,63 L229,63 L229,61 L228,61 L228,60 L227,60 L227,58 L226,58 L226,57 L225,57 L225,56 L224,56 L224,55 L222,55 L222,54 L221,54 L221,53 L220,53 L220,52 L219,52 L219,51 L217,51 L217,50 L216,50 L216,49 L214,49 L214,48 L213,48 L213,47 L211,47 L211,46 L209,46 L209,44 L206,44 L206,43 L204,43 L204,42 L201,42 L201,41 L199,41 L199,40 L196,40 L196,39 L194,39 L194,38 L190,38 L190,37 L188,37 L188,36 L186,36 L186,35 L178,35 L178,34 L171,34 L171,33 L166,33 L166,32 L0,32 Z " transform="translate(660,748)" style="fill: #FCF9F7;"/><path d="M0,0 L3,0 L3,1 L7,1 L7,2 L11,2 L11,3 L16,3 L16,4 L23,4 L23,5 L31,5 L31,6 L39,6 L39,7 L82,7 L82,6 L91,6 L91,5 L101,5 L101,4 L106,4 L106,3 L111,3 L111,2 L117,2 L117,1 L120,1 L120,0 L123,0 L123,2 L122,2 L122,4 L121,4 L121,7 L120,7 L120,9 L119,9 L119,12 L118,12 L118,62 L116,62 L116,63 L115,63 L115,64 L112,64 L112,65 L110,65 L110,66 L107,66 L107,67 L102,67 L102,68 L100,68 L100,69 L93,69 L93,70 L84,70 L84,71 L38,71 L38,70 L28,70 L28,69 L23,69 L23,68 L18,68 L18,67 L15,67 L15,66 L14,66 L14,65 L10,65 L10,64 L8,64 L8,63 L7,63 L7,62 L6,62 L6,14 L5,14 L5,10 L4,10 L4,8 L3,8 L3,4 L2,4 L2,3 L1,3 L1,2 L0,2 Z " transform="translate(718,874)" style="fill: #FDFBFA;"/><path d="M0,0 L7,0 L7,18 L8,18 L8,23 L9,23 L9,26 L2,26 L2,27 L-3,27 L-3,28 L-4,28 L-4,29 L-6,29 L-6,30 L-10,30 L-10,31 L-12,31 L-12,32 L-14,32 L-14,33 L-15,33 L-15,34 L-16,34 L-16,35 L-18,35 L-18,36 L-19,36 L-19,37 L-20,37 L-20,38 L-21,38 L-21,39 L-22,39 L-22,40 L-23,40 L-23,41 L-24,41 L-24,42 L-25,42 L-25,43 L-26,43 L-26,45 L-27,45 L-27,46 L-28,46 L-28,49 L-29,49 L-29,51 L-30,51 L-30,54 L-31,54 L-31,76 L-30,76 L-30,84 L-29,84 L-29,88 L-28,88 L-28,95 L-27,95 L-27,100 L-26,100 L-26,104 L-25,104 L-25,109 L-24,109 L-24,116 L-23,116 L-23,118 L-22,118 L-22,123 L-21,123 L-21,126 L-20,126 L-20,133 L-19,133 L-19,138 L-18,138 L-18,143 L-17,143 L-17,146 L-16,146 L-16,152 L-15,152 L-15,157 L-14,157 L-14,160 L-13,160 L-13,165 L-12,165 L-12,169 L-11,169 L-11,174 L-10,174 L-10,178 L-9,178 L-9,181 L-8,181 L-8,186 L-7,186 L-7,190 L-6,190 L-6,193 L-5,193 L-5,198 L-4,198 L-4,201 L-3,201 L-3,206 L-2,206 L-2,209 L-1,209 L-1,211 L-11,211 L-11,212 L-16,212 L-16,213 L-18,213 L-18,214 L-20,214 L-20,215 L-21,215 L-21,216 L-23,216 L-23,217 L-24,217 L-24,218 L-27,218 L-27,215 L-28,215 L-28,210 L-29,210 L-29,206 L-30,206 L-30,203 L-31,203 L-31,198 L-32,198 L-32,194 L-33,194 L-33,192 L-34,192 L-34,186 L-35,186 L-35,181 L-36,181 L-36,177 L-37,177 L-37,173 L-38,173 L-38,169 L-39,169 L-39,165 L-40,165 L-40,162 L-41,162 L-41,155 L-42,155 L-42,152 L-43,152 L-43,147 L-44,147 L-44,143 L-45,143 L-45,137 L-46,137 L-46,133 L-47,133 L-47,129 L-48,129 L-48,123 L-49,123 L-49,118 L-50,118 L-50,114 L-51,114 L-51,107 L-52,107 L-52,101 L-53,101 L-53,97 L-54,97 L-54,91 L-55,91 L-55,83 L-56,83 L-56,77 L-57,77 L-57,51 L-56,51 L-56,48 L-55,48 L-55,45 L-54,45 L-54,41 L-53,41 L-53,39 L-52,39 L-52,38 L-51,38 L-51,35 L-50,35 L-50,33 L-49,33 L-49,32 L-48,32 L-48,30 L-47,30 L-47,29 L-46,29 L-46,27 L-45,27 L-45,26 L-44,26 L-44,25 L-43,25 L-43,23 L-42,23 L-42,22 L-41,22 L-41,21 L-40,21 L-40,20 L-39,20 L-39,19 L-38,19 L-38,18 L-37,18 L-37,17 L-35,17 L-35,16 L-34,16 L-34,15 L-33,15 L-33,14 L-32,14 L-32,13 L-30,13 L-30,12 L-29,12 L-29,11 L-27,11 L-27,10 L-26,10 L-26,9 L-24,9 L-24,8 L-23,8 L-23,7 L-20,7 L-20,6 L-17,6 L-17,5 L-16,5 L-16,4 L-13,4 L-13,3 L-10,3 L-10,2 L-5,2 L-5,1 L0,1 Z " transform="translate(505,297)" style="fill: #FCF9F6;"/><path d="M0,0 L7,0 L7,1 L11,1 L11,2 L15,2 L15,3 L19,3 L19,4 L22,4 L22,5 L24,5 L24,6 L26,6 L26,7 L28,7 L28,8 L31,8 L31,9 L32,9 L32,10 L34,10 L34,11 L36,11 L36,12 L37,12 L37,13 L38,13 L38,14 L39,14 L39,15 L41,15 L41,16 L42,16 L42,17 L43,17 L43,18 L45,18 L45,19 L46,19 L46,20 L47,20 L47,21 L48,21 L48,22 L49,22 L49,23 L50,23 L50,25 L51,25 L51,26 L52,26 L52,27 L53,27 L53,29 L54,29 L54,30 L55,30 L55,31 L56,31 L56,33 L57,33 L57,35 L58,35 L58,37 L59,37 L59,39 L60,39 L60,42 L61,42 L61,45 L62,45 L62,49 L63,49 L63,56 L64,56 L64,73 L63,73 L63,82 L62,82 L62,89 L61,89 L61,92 L60,92 L60,104 L59,104 L59,111 L58,111 L58,114 L57,114 L57,118 L56,118 L56,123 L55,123 L55,126 L54,126 L54,132 L53,132 L53,138 L52,138 L52,142 L51,142 L51,145 L50,145 L50,151 L49,151 L49,155 L48,155 L48,159 L47,159 L47,164 L46,164 L46,169 L45,169 L45,173 L44,173 L44,179 L43,179 L43,182 L42,182 L42,186 L41,186 L41,190 L40,190 L40,193 L39,193 L39,198 L38,198 L38,201 L37,201 L37,206 L36,206 L36,210 L35,210 L35,215 L34,215 L34,218 L31,218 L31,217 L29,217 L29,216 L28,216 L28,215 L26,215 L26,214 L23,214 L23,213 L20,213 L20,212 L18,212 L18,211 L9,211 L9,206 L10,206 L10,202 L11,202 L11,197 L12,197 L12,194 L13,194 L13,189 L14,189 L14,186 L15,186 L15,182 L16,182 L16,178 L17,178 L17,174 L18,174 L18,169 L19,169 L19,165 L20,165 L20,160 L21,160 L21,156 L22,156 L22,154 L23,154 L23,148 L24,148 L24,143 L25,143 L25,138 L26,138 L26,136 L27,136 L27,130 L28,130 L28,123 L29,123 L29,118 L30,118 L30,113 L31,113 L31,109 L32,109 L32,104 L33,104 L33,100 L34,100 L34,93 L35,93 L35,86 L36,86 L36,82 L37,82 L37,73 L38,73 L38,54 L37,54 L37,51 L36,51 L36,49 L35,49 L35,48 L34,48 L34,45 L33,45 L33,43 L32,43 L32,42 L31,42 L31,41 L30,41 L30,40 L29,40 L29,39 L28,39 L28,38 L27,38 L27,37 L26,37 L26,36 L24,36 L24,35 L23,35 L23,34 L21,34 L21,33 L20,33 L20,32 L18,32 L18,31 L17,31 L17,30 L15,30 L15,29 L11,29 L11,28 L8,28 L8,27 L5,27 L5,26 L-2,26 L-2,22 L-1,22 L-1,19 L0,19 Z " transform="translate(753,297)" style="fill: #FCFAF8;"/><path d="M0,0 L36,0 L36,1 L51,1 L51,2 L61,2 L61,3 L66,3 L66,4 L73,4 L73,5 L77,5 L77,6 L80,6 L80,7 L84,7 L84,8 L85,8 L85,9 L90,9 L90,10 L93,10 L93,11 L95,11 L95,12 L97,12 L97,13 L99,13 L99,14 L101,14 L101,15 L102,15 L102,16 L103,16 L103,17 L104,17 L104,18 L105,18 L105,24 L104,24 L104,25 L103,25 L103,27 L102,27 L102,28 L100,28 L100,29 L98,29 L98,30 L96,30 L96,31 L93,31 L93,32 L92,32 L92,33 L89,33 L89,34 L87,34 L87,35 L82,35 L82,36 L78,36 L78,37 L76,37 L76,38 L68,38 L68,39 L63,39 L63,40 L51,40 L51,41 L45,41 L45,42 L-7,42 L-7,41 L-14,41 L-14,40 L-21,40 L-21,39 L-26,39 L-26,38 L-31,38 L-31,37 L-36,37 L-36,36 L-39,36 L-39,35 L-44,35 L-44,34 L-46,34 L-46,33 L-49,33 L-49,32 L-52,32 L-52,31 L-54,31 L-54,30 L-55,30 L-55,29 L-57,29 L-57,28 L-58,28 L-58,27 L-59,27 L-59,26 L-60,26 L-60,25 L-61,25 L-61,24 L-62,24 L-62,18 L-61,18 L-61,17 L-60,17 L-60,16 L-59,16 L-59,15 L-58,15 L-58,14 L-56,14 L-56,13 L-55,13 L-55,12 L-53,12 L-53,11 L-51,11 L-51,10 L-48,10 L-48,9 L-45,9 L-45,8 L-41,8 L-41,7 L-39,7 L-39,6 L-34,6 L-34,5 L-31,5 L-31,4 L-24,4 L-24,3 L-16,3 L-16,2 L-9,2 L-9,1 L0,1 Z " transform="translate(758,828)" style="fill: #FBF4EF;"/><path d="M0,0 L2,0 L2,7 L3,7 L3,9 L4,9 L4,10 L5,10 L5,12 L6,12 L6,13 L8,13 L8,14 L9,14 L9,15 L11,15 L11,16 L13,16 L13,17 L17,17 L17,18 L21,18 L21,19 L23,19 L23,20 L29,20 L29,21 L34,21 L34,22 L42,22 L42,23 L46,23 L46,24 L84,24 L84,23 L92,23 L92,22 L102,22 L102,21 L106,21 L106,20 L110,20 L110,19 L114,19 L114,18 L118,18 L118,17 L120,17 L120,16 L123,16 L123,15 L125,15 L125,14 L127,14 L127,13 L129,13 L129,12 L130,12 L130,11 L131,11 L131,10 L132,10 L132,8 L133,8 L133,5 L134,5 L134,1 L142,1 L142,2 L146,2 L146,3 L149,3 L149,4 L154,4 L154,5 L159,5 L159,6 L162,6 L162,7 L165,7 L165,8 L169,8 L169,9 L172,9 L172,10 L174,10 L174,11 L175,11 L175,12 L177,12 L177,13 L179,13 L179,14 L181,14 L181,15 L182,15 L182,17 L183,17 L183,18 L184,18 L184,22 L183,22 L183,23 L182,23 L182,24 L180,24 L180,25 L179,25 L179,26 L177,26 L177,27 L175,27 L175,28 L174,28 L174,29 L170,29 L170,30 L167,30 L167,31 L165,31 L165,32 L162,32 L162,33 L160,33 L160,34 L154,34 L154,35 L150,35 L150,36 L144,36 L144,37 L137,37 L137,38 L133,38 L133,39 L125,39 L125,40 L112,40 L112,41 L107,41 L107,42 L88,42 L88,43 L51,43 L51,42 L28,42 L28,41 L18,41 L18,40 L11,40 L11,39 L3,39 L3,38 L-3,38 L-3,37 L-9,37 L-9,36 L-15,36 L-15,35 L-20,35 L-20,34 L-24,34 L-24,33 L-26,33 L-26,32 L-30,32 L-30,31 L-33,31 L-33,30 L-36,30 L-36,29 L-37,29 L-37,28 L-40,28 L-40,27 L-43,27 L-43,26 L-44,26 L-44,25 L-45,25 L-45,24 L-46,24 L-46,23 L-47,23 L-47,22 L-48,22 L-48,17 L-47,17 L-47,16 L-46,16 L-46,15 L-45,15 L-45,14 L-44,14 L-44,13 L-42,13 L-42,12 L-40,12 L-40,11 L-38,11 L-38,10 L-36,10 L-36,9 L-33,9 L-33,8 L-31,8 L-31,7 L-28,7 L-28,6 L-25,6 L-25,5 L-19,5 L-19,4 L-15,4 L-15,3 L-13,3 L-13,2 L-7,2 L-7,1 L0,1 Z " transform="translate(712,932)" style="fill: #FDFBFA;"/><path d="M0,0 L3,0 L3,1 L4,1 L4,2 L6,2 L6,3 L8,3 L8,4 L10,4 L10,5 L14,5 L14,6 L18,6 L18,7 L20,7 L20,8 L24,8 L24,9 L28,9 L28,10 L31,10 L31,11 L37,11 L37,12 L42,12 L42,13 L48,13 L48,14 L57,14 L57,15 L63,15 L63,16 L79,16 L79,17 L91,17 L91,18 L137,18 L137,17 L154,17 L154,16 L162,16 L162,15 L173,15 L173,14 L181,14 L181,13 L186,13 L186,12 L193,12 L193,11 L198,11 L198,10 L202,10 L202,9 L206,9 L206,8 L210,8 L210,7 L213,7 L213,6 L216,6 L216,5 L220,5 L220,4 L222,4 L222,3 L224,3 L224,2 L227,2 L227,1 L228,1 L228,0 L231,0 L231,13 L229,13 L229,14 L228,14 L228,15 L227,15 L227,16 L226,16 L226,17 L224,17 L224,18 L222,18 L222,19 L220,19 L220,20 L218,20 L218,21 L215,21 L215,22 L212,22 L212,23 L210,23 L210,24 L205,24 L205,25 L202,25 L202,26 L198,26 L198,27 L193,27 L193,28 L188,28 L188,29 L182,29 L182,30 L171,30 L171,31 L165,31 L165,32 L155,32 L155,33 L80,33 L80,32 L67,32 L67,31 L60,31 L60,30 L50,30 L50,29 L46,29 L46,28 L38,28 L38,27 L33,27 L33,26 L29,26 L29,25 L24,25 L24,24 L21,24 L21,23 L18,23 L18,22 L16,22 L16,21 L12,21 L12,20 L10,20 L10,19 L8,19 L8,18 L7,18 L7,17 L5,17 L5,16 L4,16 L4,15 L3,15 L3,14 L2,14 L2,13 L1,13 L1,12 L0,12 Z " transform="translate(664,966)" style="fill: #FCF7F4;"/><path d="M0,0 L9,0 L9,1 L10,1 L10,2 L13,2 L13,3 L14,3 L14,4 L15,4 L15,5 L16,5 L16,6 L17,6 L17,7 L18,7 L18,9 L19,9 L19,10 L20,10 L20,14 L21,14 L21,18 L22,18 L22,37 L21,37 L21,40 L20,40 L20,44 L19,44 L19,46 L18,46 L18,48 L17,48 L17,49 L16,49 L16,50 L15,50 L15,51 L14,51 L14,52 L13,52 L13,53 L10,53 L10,54 L0,54 L0,53 L-6,53 L-6,52 L-7,52 L-7,51 L-15,51 L-15,50 L-20,50 L-20,49 L-22,49 L-22,48 L-25,48 L-25,47 L-26,47 L-26,46 L-27,46 L-27,45 L-28,45 L-28,44 L-29,44 L-29,43 L-30,43 L-30,41 L-31,41 L-31,39 L-32,39 L-32,36 L-33,36 L-33,33 L-34,33 L-34,21 L-33,21 L-33,18 L-32,18 L-32,15 L-31,15 L-31,13 L-30,13 L-30,11 L-29,11 L-29,10 L-27,10 L-27,9 L-26,9 L-26,8 L-25,8 L-25,7 L-22,7 L-22,6 L-20,6 L-20,5 L-16,5 L-16,4 L-12,4 L-12,3 L-7,3 L-7,2 L-3,2 L-3,1 L0,1 Z " transform="translate(556,280)" style="fill: #FCF9F6;"/><path d="M0,0 L10,0 L10,1 L12,1 L12,2 L16,2 L16,3 L19,3 L19,4 L24,4 L24,5 L28,5 L28,6 L31,6 L31,7 L33,7 L33,8 L35,8 L35,9 L37,9 L37,10 L38,10 L38,11 L39,11 L39,12 L40,12 L40,13 L41,13 L41,16 L42,16 L42,17 L43,17 L43,20 L44,20 L44,36 L42,36 L42,39 L41,39 L41,41 L40,41 L40,43 L39,43 L39,44 L38,44 L38,45 L37,45 L37,46 L35,46 L35,47 L34,47 L34,48 L31,48 L31,49 L28,49 L28,50 L24,50 L24,51 L18,51 L18,52 L15,52 L15,53 L11,53 L11,54 L-1,54 L-1,53 L-3,53 L-3,52 L-4,52 L-4,51 L-5,51 L-5,50 L-6,50 L-6,49 L-7,49 L-7,48 L-8,48 L-8,47 L-9,47 L-9,45 L-10,45 L-10,43 L-11,43 L-11,37 L-12,37 L-12,19 L-11,19 L-11,13 L-10,13 L-10,12 L-9,12 L-9,8 L-8,8 L-8,7 L-7,7 L-7,5 L-6,5 L-6,4 L-4,4 L-4,3 L-3,3 L-3,2 L-2,2 L-2,1 L0,1 Z " transform="translate(699,280)" style="fill: #FCF9F7;"/><path d="M0,0 L2,0 L2,6 L8,6 L8,5 L13,5 L13,6 L10,6 L10,7 L8,7 L8,8 L5,8 L5,9 L4,9 L4,10 L3,10 L3,12 L2,12 L2,15 L1,15 L1,19 L0,19 L0,42 L3,42 L3,41 L6,41 L6,40 L10,40 L10,41 L7,41 L7,42 L4,42 L4,44 L2,44 L2,46 L0,46 L0,47 L-1,47 L-1,48 L1,48 L1,49 L-1,49 L-1,51 L4,51 L4,53 L5,53 L5,54 L4,54 L4,61 L12,61 L12,62 L17,62 L17,63 L20,63 L20,64 L21,64 L21,65 L28,65 L28,66 L29,66 L29,67 L30,67 L30,68 L28,68 L28,67 L25,67 L25,66 L20,66 L20,65 L15,65 L15,64 L12,64 L12,63 L8,63 L8,62 L0,62 L0,66 L-1,66 L-1,69 L-2,69 L-2,71 L-3,71 L-3,72 L-4,72 L-4,73 L-5,73 L-5,74 L-7,74 L-7,75 L-9,75 L-9,76 L-11,76 L-11,77 L-14,77 L-14,78 L-16,78 L-16,79 L-20,79 L-20,80 L-24,80 L-24,81 L-28,81 L-28,82 L-32,82 L-32,83 L-42,83 L-42,84 L-50,84 L-50,85 L-88,85 L-88,84 L-92,84 L-92,83 L-100,83 L-100,82 L-105,82 L-105,81 L-111,81 L-111,80 L-113,80 L-113,79 L-117,79 L-117,78 L-121,78 L-121,77 L-123,77 L-123,76 L-125,76 L-125,75 L-126,75 L-126,74 L-128,74 L-128,73 L-129,73 L-129,71 L-130,71 L-130,70 L-131,70 L-131,68 L-132,68 L-132,61 L-134,61 L-134,62 L-141,62 L-141,63 L-147,63 L-147,64 L-149,64 L-149,63 L-148,63 L-148,62 L-144,62 L-144,61 L-140,61 L-140,58 L-137,58 L-137,59 L-133,59 L-133,58 L-131,58 L-131,57 L-130,57 L-130,56 L-129,56 L-129,55 L-128,55 L-128,56 L-126,56 L-126,52 L-125,52 L-125,45 L-124,45 L-124,23 L-125,23 L-125,13 L-126,13 L-126,8 L-127,8 L-127,7 L-129,7 L-129,2 L-123,2 L-123,3 L-113,3 L-113,4 L-111,4 L-111,5 L-105,5 L-105,6 L-104,6 L-104,7 L-97,7 L-97,8 L-105,8 L-105,7 L-112,7 L-112,6 L-117,6 L-117,5 L-121,5 L-121,4 L-125,4 L-125,3 L-128,3 L-128,5 L-127,5 L-127,6 L-126,6 L-126,7 L-125,7 L-125,11 L-124,11 L-124,13 L-123,13 L-123,17 L-122,17 L-122,65 L-121,65 L-121,66 L-120,66 L-120,67 L-118,67 L-118,68 L-114,68 L-114,69 L-113,69 L-113,70 L-110,70 L-110,71 L-105,71 L-105,72 L-100,72 L-100,73 L-90,73 L-90,74 L-44,74 L-44,73 L-35,73 L-35,72 L-28,72 L-28,71 L-26,71 L-26,70 L-21,70 L-21,69 L-18,69 L-18,68 L-16,68 L-16,67 L-13,67 L-13,66 L-12,66 L-12,65 L-10,65 L-10,15 L-9,15 L-9,12 L-8,12 L-8,10 L-7,10 L-7,7 L-6,7 L-6,5 L-5,5 L-5,3 L-8,3 L-8,4 L-11,4 L-11,5 L-17,5 L-17,6 L-19,6 L-19,5 L-18,5 L-18,4 L-17,4 L-17,3 L-13,3 L-13,2 L-10,2 L-10,1 L-4,1 L-4,2 L-1,2 L-1,1 L0,1 Z " transform="translate(846,871)" style="fill: #CF7B61;"/><path d="M0,0 L2,0 L2,7 L3,7 L3,9 L4,9 L4,10 L5,10 L5,12 L6,12 L6,13 L8,13 L8,14 L9,14 L9,15 L11,15 L11,16 L13,16 L13,17 L17,17 L17,18 L21,18 L21,19 L23,19 L23,20 L29,20 L29,21 L34,21 L34,22 L42,22 L42,23 L46,23 L46,24 L84,24 L84,23 L91,23 L91,24 L92,24 L92,25 L36,25 L36,26 L38,26 L38,27 L40,27 L40,28 L41,28 L41,29 L25,29 L25,30 L22,30 L22,31 L21,31 L21,32 L25,32 L25,35 L14,35 L14,34 L5,34 L5,37 L10,37 L10,38 L22,38 L22,39 L29,39 L29,40 L36,40 L36,41 L97,41 L97,39 L102,39 L102,38 L105,38 L105,39 L118,39 L118,38 L126,38 L126,37 L129,37 L129,36 L132,36 L132,35 L131,35 L131,34 L130,34 L130,33 L131,33 L131,32 L138,32 L138,31 L141,31 L141,32 L148,32 L148,33 L149,33 L149,32 L160,32 L160,31 L163,31 L163,30 L166,30 L166,29 L165,29 L165,28 L167,28 L167,27 L168,27 L168,26 L169,26 L169,27 L171,27 L171,25 L172,25 L172,22 L168,22 L168,20 L173,20 L173,22 L176,22 L176,21 L179,21 L179,22 L180,22 L180,21 L181,21 L181,19 L182,19 L182,17 L183,17 L183,18 L184,18 L184,22 L183,22 L183,23 L182,23 L182,24 L180,24 L180,25 L179,25 L179,26 L177,26 L177,27 L175,27 L175,28 L174,28 L174,29 L170,29 L170,30 L167,30 L167,31 L165,31 L165,32 L162,32 L162,33 L160,33 L160,34 L154,34 L154,35 L150,35 L150,36 L144,36 L144,37 L137,37 L137,38 L133,38 L133,39 L125,39 L125,40 L112,40 L112,41 L107,41 L107,42 L88,42 L88,43 L51,43 L51,42 L28,42 L28,41 L18,41 L18,40 L11,40 L11,39 L3,39 L3,38 L-3,38 L-3,37 L-9,37 L-9,36 L-15,36 L-15,35 L-20,35 L-20,34 L-24,34 L-24,33 L-26,33 L-26,32 L-30,32 L-30,31 L-33,31 L-33,30 L-36,30 L-36,29 L-37,29 L-37,28 L-40,28 L-40,27 L-43,27 L-43,26 L-44,26 L-44,25 L-45,25 L-45,24 L-46,24 L-46,23 L-47,23 L-47,22 L-48,22 L-48,17 L-47,17 L-47,16 L-46,16 L-46,15 L-45,15 L-45,14 L-44,14 L-44,13 L-42,13 L-42,12 L-40,12 L-40,11 L-38,11 L-38,10 L-36,10 L-36,9 L-33,9 L-33,8 L-31,8 L-31,7 L-28,7 L-28,6 L-25,6 L-25,5 L-19,5 L-19,4 L-15,4 L-15,3 L-13,3 L-13,2 L-7,2 L-7,1 L0,1 Z M40,26 L41,26 L41,27 L40,27 Z " transform="translate(712,932)" style="fill: #FBF5F1;"/><path d="M0,0 L1,0 L1,1 L2,1 L2,2 L3,2 L3,3 L4,3 L4,4 L5,4 L5,6 L6,6 L6,7 L7,7 L7,11 L8,11 L8,15 L9,15 L9,18 L10,18 L10,31 L11,31 L11,35 L12,35 L12,37 L13,37 L13,40 L14,40 L14,41 L15,41 L15,42 L16,42 L16,43 L17,43 L17,44 L19,44 L19,45 L51,45 L51,44 L54,44 L54,43 L57,43 L57,42 L58,42 L58,44 L57,44 L57,45 L56,45 L56,47 L55,47 L55,49 L59,49 L59,51 L58,51 L58,52 L55,52 L55,53 L57,53 L57,59 L56,59 L56,60 L55,60 L55,61 L54,61 L54,93 L53,93 L53,104 L52,104 L52,112 L51,112 L51,115 L50,115 L50,119 L48,119 L48,115 L49,115 L49,110 L50,110 L50,104 L51,104 L51,98 L52,98 L52,57 L49,57 L49,58 L21,58 L21,98 L20,98 L20,104 L19,104 L19,106 L18,106 L18,112 L17,112 L17,115 L16,115 L16,118 L15,118 L15,104 L14,104 L14,100 L15,100 L15,99 L14,99 L14,97 L13,97 L13,98 L11,98 L11,99 L10,99 L10,100 L9,100 L9,101 L-54,101 L-54,100 L-53,100 L-53,99 L-63,99 L-63,98 L-135,98 L-135,99 L-156,99 L-156,98 L-148,98 L-148,97 L-143,97 L-143,96 L8,96 L8,95 L9,95 L9,64 L-140,64 L-140,65 L-148,65 L-148,64 L-146,64 L-146,63 L-135,63 L-135,62 L3,62 L3,60 L8,60 L8,55 L7,55 L7,53 L10,53 L10,51 L8,51 L8,47 L9,47 L9,48 L11,48 L11,49 L12,49 L12,48 L13,48 L13,46 L12,46 L12,45 L11,45 L11,43 L9,43 L9,39 L10,39 L10,35 L9,35 L9,22 L8,22 L8,20 L7,20 L7,15 L6,15 L6,14 L5,14 L5,8 L4,8 L4,6 L2,6 L2,5 L0,5 L0,3 L1,3 L1,2 L0,2 Z " transform="translate(596,684)" style="fill: #CD785E;"/><path d="M0,0 L157,0 L157,1 L192,1 L192,0 L209,0 L209,1 L211,1 L211,0 L242,0 L242,1 L285,1 L285,0 L344,0 L344,1 L355,1 L355,0 L413,0 L413,1 L482,1 L482,2 L496,2 L496,3 L484,3 L484,4 L490,4 L490,5 L469,5 L469,4 L-69,4 L-69,3 L-73,3 L-73,4 L-76,4 L-76,3 L-78,3 L-78,2 L-75,2 L-75,1 L0,1 Z " transform="translate(437,151)" style="fill: #DC866B;"/><path d="M0,0 L48,0 L48,1 L58,1 L58,2 L65,2 L65,3 L72,3 L72,4 L74,4 L74,5 L77,5 L77,6 L79,6 L79,7 L81,7 L81,8 L83,8 L83,9 L84,9 L84,13 L83,13 L83,14 L82,14 L82,15 L80,15 L80,16 L78,16 L78,17 L75,17 L75,18 L71,18 L71,19 L64,19 L64,20 L60,20 L60,21 L51,21 L51,22 L2,22 L2,21 L-3,21 L-3,20 L-11,20 L-11,19 L-15,19 L-15,18 L-18,18 L-18,17 L-21,17 L-21,16 L-23,16 L-23,15 L-25,15 L-25,14 L-26,14 L-26,13 L-27,13 L-27,9 L-26,9 L-26,8 L-24,8 L-24,7 L-23,7 L-23,6 L-19,6 L-19,5 L-17,5 L-17,4 L-14,4 L-14,3 L-9,3 L-9,2 L-5,2 L-5,1 L0,1 Z " transform="translate(751,837)" style="fill: #D27659;"/><path d="M0,0 L7,0 L7,1 L11,1 L11,2 L15,2 L15,3 L19,3 L19,4 L22,4 L22,5 L24,5 L24,6 L26,6 L26,7 L28,7 L28,8 L31,8 L31,9 L32,9 L32,10 L34,10 L34,11 L36,11 L36,12 L37,12 L37,13 L38,13 L38,14 L39,14 L39,15 L41,15 L41,16 L42,16 L42,17 L43,17 L43,18 L45,18 L45,19 L46,19 L46,20 L47,20 L47,21 L48,21 L48,22 L49,22 L49,23 L50,23 L50,28 L48,28 L48,29 L52,29 L52,31 L53,31 L53,36 L52,36 L52,41 L49,41 L49,40 L48,40 L48,41 L47,41 L47,42 L46,42 L46,43 L42,43 L42,47 L43,47 L43,51 L42,51 L42,55 L41,55 L41,53 L40,53 L40,54 L39,54 L39,55 L40,55 L40,76 L39,76 L39,81 L38,81 L38,95 L37,95 L37,98 L38,98 L38,99 L37,99 L37,100 L36,100 L36,109 L35,109 L35,113 L36,113 L36,114 L35,114 L35,118 L33,118 L33,119 L32,119 L32,121 L31,121 L31,127 L30,127 L30,131 L28,131 L28,139 L27,139 L27,140 L26,140 L26,150 L25,150 L25,151 L24,151 L24,152 L23,152 L23,148 L24,148 L24,143 L25,143 L25,138 L26,138 L26,136 L27,136 L27,130 L28,130 L28,123 L29,123 L29,118 L30,118 L30,113 L31,113 L31,109 L32,109 L32,104 L33,104 L33,100 L34,100 L34,93 L35,93 L35,86 L36,86 L36,82 L37,82 L37,73 L38,73 L38,54 L37,54 L37,51 L36,51 L36,49 L35,49 L35,48 L34,48 L34,45 L33,45 L33,43 L32,43 L32,42 L31,42 L31,41 L30,41 L30,40 L29,40 L29,39 L28,39 L28,38 L27,38 L27,37 L26,37 L26,36 L24,36 L24,35 L23,35 L23,34 L21,34 L21,33 L20,33 L20,32 L18,32 L18,31 L17,31 L17,30 L15,30 L15,29 L11,29 L11,28 L8,28 L8,27 L5,27 L5,26 L-2,26 L-2,22 L-1,22 L-1,19 L0,19 Z M47,27 L47,28 L48,28 L48,27 Z " transform="translate(753,297)" style="fill: #FCF7F3;"/></svg>